<?xml version="1.0" encoding="utf-8"?>
<!-- Generator: Adobe Illustrator 16.0.0, SVG Export Plug-In . SVG Version: 6.00 Build 0)  -->
<!DOCTYPE svg PUBLIC "-//W3C//DTD SVG 1.1//EN" "http://www.w3.org/Graphics/SVG/1.1/DTD/svg11.dtd">
<svg version="1.1" id="Layer_1" xmlns="http://www.w3.org/2000/svg" xmlns:xlink="http://www.w3.org/1999/xlink" x="0px" y="0px"
	 width="300px" height="400px" viewBox="0 0 300 400" enable-background="new 0 0 300 400" xml:space="preserve">
<g id="unit">
	<path fill="#57BEAA" d="M225.196,141.252c-5.117-6.851-7.744-11.805-9.637-17.874c-2.449-7.845-5.621-20.8-6.086-24.257
		c-0.221-1.635-2.557-3.46-3.298-4.758c-2.854-5.004-4.832-8.968-5.704-10.402c-2.572-4.226-6.89-4.917-9.025-4.695
		c-2.137,0.221-3.043,0.653-3.043,0.653s-6.113-18.613-19.271-27.037c-5.482-3.509-11.839-5.31-19.131-5.287
		c-7.292-0.022-13.646,1.778-19.131,5.287c-13.158,8.423-19.271,27.037-19.271,27.037s-0.906-0.432-3.044-0.653
		c-2.137-0.221-6.452,0.469-9.024,4.695c-0.874,1.435-2.851,5.398-5.706,10.402c-0.741,1.298-3.077,3.124-3.297,4.758
		c-0.464,3.457-3.636,16.412-6.084,24.257c-1.894,6.07-4.521,11.025-9.642,17.878c-17.542,18.542-28.301,43.568-28.301,71.107
		c0,26.574,10.02,50.807,26.481,69.135c3.708,6.462,7.888,13.947,9.268,17.188c2.521,5.914,9.575,34.921,9.575,34.921
		c0,0.562,0.451,1.26,1.008,1.26h0.668c0,0,1.869,4.28,4.192,8.753c1.606,3.092,3.737,6.099,4.225,6.706
		c0.488,0.605,1.414,1.535,2.022,1.794c0.756,0.321,3.396,0.284,3.396,0.284s30.769-1.184,42.664-1.184
		c11.896,0,42.664,1.158,42.664,1.158s2.642,0.004,3.396-0.318c0.607-0.259,1.535-1.251,2.023-1.856
		c0.486-0.606,2.617-3.491,4.223-6.583c2.324-4.473,4.193-8.754,4.193-8.754h0.668c0.559,0,1.009-0.698,1.009-1.26
		c0,0,7.054-28.882,9.575-34.798c1.38-3.238,5.561-10.787,9.268-17.25c16.461-18.328,26.48-42.588,26.48-69.162
		C253.501,184.854,242.739,159.796,225.196,141.252z"/>
</g>
</svg>
