<?xml version="1.0" encoding="utf-8"?>
<!-- Generator: Adobe Illustrator 16.0.0, SVG Export Plug-In . SVG Version: 6.00 Build 0)  -->
<!DOCTYPE svg PUBLIC "-//W3C//DTD SVG 1.1//EN" "http://www.w3.org/Graphics/SVG/1.1/DTD/svg11.dtd">
<svg version="1.1" id="logo" xmlns="http://www.w3.org/2000/svg" xmlns:xlink="http://www.w3.org/1999/xlink" x="0px" y="0px"
	 width="133px" height="60.518px" viewBox="0 0 133 60.518" enable-background="new 0 0 133 60.518" xml:space="preserve">
<g>
	<path fill="#262525" d="M38.362,25.329h-7.979c-2.242,0-2.824,1.91-2.974,2.815h13.928C41.186,27.239,40.604,25.329,38.362,25.329z
		"/>
	<path fill="#262525" d="M86.131,27.482c0-2.351-2.545-2.351-2.545-2.351h-1.469h-5.77h-1.47c0,0-2.545,0-2.545,2.351v1.126v1.175
		v1.126c0,2.35,2.545,2.35,2.545,2.35h1.47h5.77h1.469c0,0,2.545,0,2.545-2.35v-1.126h0.008v-1.175h-0.008V27.482z"/>
	<path fill="#262525" d="M0,0v60.518h133V0H0z M44.946,28.143v0.465V31.7v5.18h-3.557V31.7H27.356v5.18h-3.557V31.7v-3.092v-0.465
		v-0.416c0,0,0.514-5.679,6.339-6.07h8.468c5.825,0.391,6.339,6.07,6.339,6.07L44.946,28.143L44.946,28.143z M67.91,22.294
		c0,0-0.049,2.839-2.448,2.839h-6.639v11.748h-3.557V25.133h-6.673c-2.399,0-2.448-2.839-2.448-2.839v-0.636H67.91V22.294z
		 M90.004,29.783h-0.007v0.979c0,0,0.208,2.312-1.713,4.233s-3.134,2.178-6.168,2.178h-5.771c-3.035,0-4.246-0.257-6.168-2.178
		c-1.921-1.921-1.713-4.233-1.713-4.233v-0.979v-1.175v-0.979c0,0-0.208-2.312,1.713-4.233c1.922-1.921,3.133-2.179,6.168-2.179
		h5.771c3.034,0,4.247,0.258,6.168,2.179s1.713,4.233,1.713,4.233v0.979h0.007V29.783z M111.42,34.858
		c-1.913,1.913-3.436,2.007-4.781,2.007H95.74v3.149h-3.559l0.002-11.989v-0.836c0,0-0.135-2.052,1.778-3.965
		s3.435-2.008,4.781-2.008h7.897c1.346,0,2.867,0.095,4.78,2.008s1.779,3.965,1.779,3.965v0.836v2.031v0.836
		C113.199,30.893,113.333,32.945,111.42,34.858z"/>
	<path fill="#262525" d="M106.407,24.774h-1.701h-4.031h-1.7c0,0-3.234,0.163-3.234,3.834v4.699h8.966h1.701
		c0,0,3.233-0.163,3.233-3.834v-0.865C109.643,24.937,106.407,24.774,106.407,24.774z"/>
</g>
</svg>
