<?xml version="1.0" encoding="utf-8"?>
<!-- Generator: Adobe Illustrator 16.0.0, SVG Export Plug-In . SVG Version: 6.00 Build 0)  -->
<!DOCTYPE svg PUBLIC "-//W3C//DTD SVG 1.1//EN" "http://www.w3.org/Graphics/SVG/1.1/DTD/svg11.dtd">
<svg version="1.1" id="logo" xmlns="http://www.w3.org/2000/svg" xmlns:xlink="http://www.w3.org/1999/xlink" x="0px" y="0px"
	 width="133px" height="60px" viewBox="-933 430.759 133 60" enable-background="new -933 430.759 133 60" xml:space="preserve">
<g>
	<path d="M-894.638,455.871h-7.979c-2.242,0-2.824,1.894-2.974,2.792h13.928
		C-891.814,457.764-892.396,455.871-894.638,455.871z"/>
	<path d="M-846.869,458.007c0-2.331-2.545-2.331-2.545-2.331h-1.469h-5.77h-1.47c0,0-2.545,0-2.545,2.331v1.115
		v1.165v1.116c0,2.33,2.545,2.33,2.545,2.33h1.47h5.77h1.469c0,0,2.545,0,2.545-2.33v-1.116h0.008v-1.165h-0.008V458.007z"/>
	<path d="M-933,430.759v60h133v-60H-933z M-888.054,458.661v0.461v3.065v5.136h-3.557v-5.136h-14.033v5.136h-3.557
		v-5.136v-3.065v-0.461v-0.412c0,0,0.514-5.63,6.339-6.018h8.468c5.825,0.387,6.339,6.018,6.339,6.018L-888.054,458.661
		L-888.054,458.661z M-865.09,452.862c0,0-0.049,2.814-2.448,2.814h-6.639v11.647h-3.557v-11.647h-6.673
		c-2.399,0-2.448-2.814-2.448-2.814v-0.631h21.765V452.862z M-842.996,460.287h-0.007v0.972c0,0,0.208,2.292-1.713,4.197
		c-1.921,1.904-3.134,2.158-6.168,2.158h-5.771c-3.035,0-4.246-0.254-6.168-2.158c-1.921-1.905-1.713-4.197-1.713-4.197v-0.972
		v-1.165v-0.971c0,0-0.208-2.293,1.713-4.197c1.922-1.904,3.133-2.16,6.168-2.16h5.771c3.034,0,4.247,0.256,6.168,2.16
		s1.713,4.197,1.713,4.197v0.971h0.007V460.287z M-821.58,465.319c-1.913,1.896-3.436,1.989-4.781,1.989h-10.898v3.123h-3.559
		l0.002-11.888v-0.828c0,0-0.135-2.034,1.778-3.932c1.913-1.896,3.435-1.99,4.781-1.99h7.897c1.346,0,2.867,0.094,4.78,1.99
		c1.913,1.897,1.779,3.932,1.779,3.932v0.828v2.015v0.829C-819.801,461.387-819.667,463.422-821.58,465.319z"/>
	<path d="M-826.593,455.321h-1.701h-4.031h-1.7c0,0-3.234,0.162-3.234,3.801v4.659h8.966h1.701
		c0,0,3.233-0.161,3.233-3.801v-0.858C-823.357,455.483-826.593,455.321-826.593,455.321z"/>
</g>
</svg>
