<?xml version="1.0" encoding="utf-8"?>
<!-- Generator: Adobe Illustrator 16.0.0, SVG Export Plug-In . SVG Version: 6.00 Build 0)  -->
<!DOCTYPE svg PUBLIC "-//W3C//DTD SVG 1.1//EN" "http://www.w3.org/Graphics/SVG/1.1/DTD/svg11.dtd">
<svg version="1.1" xmlns="http://www.w3.org/2000/svg" xmlns:xlink="http://www.w3.org/1999/xlink" x="0px" y="0px" width="300px"
	 height="300px" viewBox="0 0 300 300" enable-background="new 0 0 300 300" xml:space="preserve">
<g id="Layer_11">
	<g>
		<path opacity="0.5" fill="#C07AB3" d="M150,35.748c-63.097,0-114.25,51.153-114.25,114.252S86.902,264.252,150,264.252
			c63.101,0,114.251-51.153,114.251-114.252S213.1,35.748,150,35.748z"/>
	</g>
</g>
<g id="Layer_21">
	<path opacity="0.5" fill="#4B5DAA" d="M250.176,139.471c-0.367-3.529-0.925-7.001-1.645-10.415
		c-0.735-3.464-1.652-6.859-2.732-10.183c-1.091-3.361-2.359-6.644-3.785-9.84c-1.438-3.224-3.04-6.355-4.795-9.391
		c-1.764-3.051-3.678-6.002-5.744-8.839c-2.071-2.846-4.277-5.587-6.628-8.196c-2.354-2.613-4.842-5.102-7.455-7.455
		c-2.61-2.351-5.351-4.557-8.198-6.629c-2.837-2.064-5.788-3.979-8.838-5.744c-3.034-1.755-6.166-3.355-9.389-4.794
		c-3.197-1.427-6.478-2.694-9.84-3.785c-3.323-1.08-6.719-1.999-10.184-2.731c-3.412-0.721-6.884-1.278-10.414-1.645
		c-3.461-0.361-6.973-0.55-10.528-0.55h0c-3.556,0-7.067,0.188-10.528,0.55c-3.53,0.366-7.002,0.924-10.415,1.646
		c-3.465,0.733-6.86,1.651-10.184,2.731c-3.362,1.092-6.643,2.36-9.839,3.784c-3.223,1.438-6.356,3.039-9.39,4.794
		c-3.05,1.766-6.001,3.68-8.839,5.744c-2.845,2.072-5.586,4.278-8.196,6.629c-2.612,2.356-5.101,4.843-7.454,7.455
		c-2.352,2.609-4.557,5.351-6.628,8.197c-2.065,2.839-3.98,5.787-5.745,8.838c-1.756,3.035-3.356,6.167-4.794,9.391
		c-1.426,3.196-2.694,6.477-3.786,9.84c-1.079,3.323-1.998,6.719-2.73,10.183c-0.722,3.412-1.279,6.884-1.646,10.414
		c-0.36,3.462-0.55,6.974-0.55,10.53c0,3.558,0.189,7.068,0.55,10.529c0.366,3.529,0.923,7.002,1.645,10.414
		c0.733,3.466,1.652,6.86,2.731,10.184c1.092,3.362,2.359,6.643,3.786,9.84c1.438,3.224,3.038,6.355,4.793,9.389
		c1.765,3.052,3.68,6.002,5.744,8.84c2.072,2.847,4.277,5.588,6.628,8.196c2.354,2.613,4.842,5.102,7.455,7.455
		c2.61,2.353,5.351,4.558,8.196,6.629c2.838,2.065,5.789,3.979,8.839,5.744c3.034,1.756,6.166,3.357,9.39,4.794
		c3.197,1.426,6.478,2.695,9.84,3.786c3.323,1.08,6.718,1.998,10.184,2.73c3.412,0.723,6.885,1.279,10.414,1.646
		c3.461,0.359,6.974,0.55,10.53,0.55h0c3.557,0,7.068-0.19,10.529-0.55c3.53-0.367,7.002-0.924,10.415-1.646
		c3.465-0.732,6.86-1.65,10.184-2.73c3.362-1.091,6.644-2.36,9.84-3.786c3.224-1.437,6.355-3.038,9.389-4.793
		c3.05-1.766,6.002-3.68,8.839-5.745c2.847-2.071,5.587-4.276,8.198-6.629c2.612-2.354,5.1-4.842,7.454-7.455
		c2.351-2.608,4.556-5.35,6.628-8.196c2.065-2.838,3.979-5.789,5.744-8.84c1.755-3.034,3.357-6.166,4.794-9.39
		c1.426-3.198,2.694-6.478,3.785-9.841c1.08-3.323,1.997-6.718,2.731-10.183c0.72-3.413,1.279-6.886,1.645-10.414
		c0.36-3.462,0.549-6.973,0.549-10.528C250.725,146.443,250.536,142.933,250.176,139.471z"/>
</g>
</svg>
