<?xml version="1.0" encoding="utf-8"?>
<!-- Generator: Adobe Illustrator 16.0.0, SVG Export Plug-In . SVG Version: 6.00 Build 0)  -->
<!DOCTYPE svg PUBLIC "-//W3C//DTD SVG 1.1//EN" "http://www.w3.org/Graphics/SVG/1.1/DTD/svg11.dtd">
<svg version="1.1" id="Layer_1" xmlns="http://www.w3.org/2000/svg" xmlns:xlink="http://www.w3.org/1999/xlink" x="0px" y="0px"
	 width="350px" height="350px" viewBox="-99.5 18.5 350 350" enable-background="new -99.5 18.5 350 350" xml:space="preserve">
<g>
	<path opacity="0.5" fill="#4B5DA9" enable-background="new    " d="M193.877,181.057c-0.433-4.17-1.093-8.271-1.944-12.304
		c-0.868-4.094-1.952-8.108-3.229-12.033c-1.29-3.973-2.787-7.852-4.473-11.627c-1.7-3.811-3.594-7.51-5.667-11.099
		c-2.086-3.604-4.349-7.093-6.789-10.443c-2.445-3.364-5.052-6.603-7.83-9.685c-2.783-3.09-5.723-6.028-8.809-8.811
		c-3.085-2.776-6.323-5.382-9.689-7.833c-3.351-2.439-6.838-4.702-10.443-6.787c-3.584-2.074-7.286-3.967-11.094-5.665
		c-3.779-1.688-7.656-3.186-11.628-4.475c-3.927-1.274-7.939-2.36-12.034-3.227c-4.032-0.853-8.135-1.509-12.306-1.942
		c-4.089-0.43-8.24-0.651-12.441-0.651l0,0c-4.201,0-8.351,0.221-12.441,0.651c-4.171,0.434-8.274,1.089-12.306,1.944
		c-4.095,0.865-8.107,1.951-12.034,3.228c-3.973,1.293-7.85,2.791-11.627,4.473c-3.81,1.697-7.51,3.591-11.096,5.665
		c-3.606,2.086-7.092,4.348-10.445,6.787c-3.361,2.451-6.602,5.057-9.685,7.833c-3.088,2.786-6.028,5.723-8.81,8.811
		c-2.778,3.083-5.383,6.32-7.831,9.687c-2.44,3.352-4.704,6.837-6.788,10.441c-2.076,3.589-3.966,7.288-5.666,11.099
		c-1.683,3.777-3.183,7.653-4.475,11.627c-1.275,3.925-2.358,7.939-3.226,12.033c-0.854,4.031-1.512,8.132-1.944,12.304
		c-0.425,4.092-0.652,8.239-0.652,12.443c0,4.206,0.226,8.356,0.652,12.445c0.432,4.168,1.09,8.27,1.943,12.303
		c0.866,4.096,1.951,8.109,3.227,12.03c1.291,3.979,2.79,7.855,4.475,11.628c1.7,3.81,3.589,7.515,5.665,11.098
		c2.085,3.604,4.348,7.093,6.786,10.441c2.45,3.367,5.054,6.608,7.832,9.688c2.783,3.09,5.722,6.028,8.811,8.812
		c3.083,2.779,6.321,5.383,9.685,7.833c3.354,2.441,6.839,4.703,10.444,6.788c3.588,2.075,7.286,3.966,11.096,5.664
		c3.779,1.688,7.657,3.187,11.627,4.473c3.927,1.278,7.939,2.362,12.034,3.229c4.033,0.854,8.137,1.512,12.306,1.946
		c4.09,0.423,8.242,0.646,12.443,0.646l0,0c4.203,0,8.354-0.224,12.443-0.646c4.172-0.435,8.273-1.092,12.306-1.946
		c4.095-0.866,8.107-1.95,12.034-3.229c3.975-1.286,7.852-2.785,11.628-4.473c3.808-1.698,7.509-3.589,11.094-5.664
		c3.604-2.087,7.094-4.347,10.445-6.788c3.364-2.45,6.604-5.054,9.687-7.833c3.086-2.783,6.026-5.722,8.809-8.812
		c2.777-3.079,5.382-6.32,7.831-9.688c2.441-3.349,4.703-6.837,6.788-10.441c2.073-3.587,3.966-7.29,5.666-11.098
		c1.684-3.778,3.184-7.652,4.473-11.63c1.276-3.925,2.36-7.935,3.228-12.03c0.852-4.033,1.511-8.135,1.944-12.303
		c0.425-4.092,0.647-8.239,0.647-12.443S194.302,185.15,193.877,181.057z"/>
	<g>
		<path fill="#FFFFFF" d="M15.772,91.263l0.572,0.995l3.571,6.183l55.582,95.573l58.641-101.757l0.571-0.993l0.125-0.215
			l0.131-0.225l0,0c-0.075-0.042-0.146-0.089-0.22-0.134c-3.586-2.078-7.286-3.964-11.096-5.663
			c-3.776-1.686-7.654-3.185-11.626-4.472c-3.929-1.277-7.941-2.365-12.036-3.23c-4.032-0.849-8.135-1.508-12.305-1.946
			c-4.089-0.422-8.24-0.644-12.44-0.644l0,0c-4.201,0-8.352,0.221-12.441,0.644c-4.17,0.438-8.275,1.097-12.306,1.946
			c-4.095,0.866-8.107,1.956-12.034,3.23c-3.973,1.289-7.85,2.787-11.627,4.472c-3.81,1.699-7.51,3.587-11.096,5.663
			c-0.074,0.045-0.146,0.092-0.217,0.134l0.126,0.225L15.772,91.263z"/>
	</g>
	<g>
		<polygon fill="#231F20" points="6.059,97.489 5.913,97.285 5.761,97.079 5.758,97.073 5.55,97.219 5.343,97.376 5.347,97.38 
			5.498,97.588 5.645,97.785 6.319,98.713 10.516,104.492 10.725,104.343 10.931,104.189 6.734,98.415 		"/>
		<polygon fill="#231F20" points="-37.535,157.043 -37.293,157.121 -36.204,157.476 -29.411,159.679 -29.332,159.436 
			-29.253,159.194 -36.045,156.989 -37.374,156.556 -37.619,156.473 -37.624,156.47 -37.705,156.72 -37.782,156.961 
			-37.776,156.961 		"/>
		<polygon fill="#231F20" points="-33.094,145.432 -32.864,145.528 -31.818,145.998 -25.294,148.904 -25.189,148.666 
			-25.086,148.435 -31.611,145.528 -31.611,145.528 -32.886,144.962 -33.118,144.858 -33.125,144.856 -33.23,145.091 
			-33.333,145.321 -33.326,145.325 		"/>
		<polygon fill="#231F20" points="-27.466,134.35 -27.25,134.474 -26.255,135.048 -20.072,138.614 -19.944,138.393 -19.815,138.172 
			-26,134.604 -26,134.604 -27.209,133.902 -27.431,133.776 -27.435,133.774 -27.564,133.992 -27.693,134.217 -27.687,134.223 		"/>
		<polygon fill="#231F20" points="-3.771,105.079 -3.942,104.885 -3.947,104.881 -4.135,105.054 -4.327,105.226 -4.322,105.23 
			-4.152,105.422 -3.985,105.607 -3.216,106.458 1.563,111.766 1.753,111.594 1.944,111.423 -2.835,106.116 		"/>
		<polygon fill="#231F20" points="-20.21,123.643 -20.413,123.497 -20.62,123.349 -20.625,123.344 -20.778,123.552 -20.926,123.76 
			-20.921,123.762 -20.713,123.911 -20.511,124.057 -19.585,124.733 -13.81,128.93 -13.656,128.724 -13.507,128.515 
			-19.285,124.319 		"/>
		<polygon fill="#231F20" points="-12.391,114.015 -12.577,113.849 -12.767,113.675 -12.771,113.673 -12.944,113.865 
			-13.117,114.055 -13.111,114.062 -12.919,114.229 -11.882,115.162 -6.575,119.942 -6.404,119.752 -6.232,119.56 -11.542,114.783 
					"/>
		<polygon fill="#231F20" points="180.333,159.438 180.413,159.681 187.206,157.478 188.295,157.121 188.536,157.043 
			188.777,156.963 188.784,156.961 188.706,156.72 188.625,156.47 188.619,156.477 188.375,156.556 187.048,156.991 
			180.257,159.194 		"/>
		<polygon fill="#231F20" points="-40.725,169.056 -39.36,169.345 -32.375,170.833 -32.321,170.579 -32.269,170.331 
			-39.253,168.844 -40.375,168.607 -40.621,168.558 -40.871,168.502 -40.876,168.5 -40.931,168.751 -40.983,168.999 
			-40.977,169.001 		"/>
		<polygon fill="#231F20" points="170.945,138.393 171.074,138.614 177.258,135.048 178.249,134.474 178.466,134.35 
			178.688,134.223 178.694,134.217 178.565,133.992 178.438,133.774 178.433,133.776 178.212,133.902 177.002,134.604 
			170.818,138.172 		"/>
		<polygon fill="#231F20" points="176.189,148.669 176.295,148.904 182.819,146 183.867,145.533 184.097,145.434 184.33,145.325 
			184.336,145.325 184.231,145.091 184.126,144.856 184.12,144.858 183.887,144.962 183.658,145.065 182.61,145.528 
			176.087,148.435 		"/>
		<polygon fill="#231F20" points="183.324,170.582 183.376,170.833 190.362,169.345 191.728,169.057 191.979,169.001 
			191.984,169.001 191.933,168.753 191.879,168.5 191.871,168.502 191.622,168.558 191.377,168.607 190.257,168.844 183.27,170.331 
					"/>
		<polygon fill="#231F20" points="185.123,181.981 185.149,182.233 192.253,181.486 193.395,181.37 193.642,181.342 
			193.896,181.314 193.901,181.312 193.877,181.057 193.85,180.804 193.844,180.804 193.588,180.831 192.199,180.976 185.1,181.726 
					"/>
		<polygon fill="#231F20" points="140.484,104.49 144.682,98.713 144.682,98.713 145.502,97.588 145.652,97.38 145.657,97.372 
			145.447,97.219 145.443,97.218 145.242,97.071 145.236,97.076 145.085,97.283 144.94,97.482 144.266,98.415 140.069,104.189 
			140.277,104.342 		"/>
		<polygon fill="#231F20" points="164.809,128.93 170.587,124.733 171.515,124.057 171.715,123.911 171.922,123.762 
			171.928,123.758 171.78,123.55 171.627,123.344 171.622,123.349 171.412,123.497 170.286,124.317 170.286,124.317 
			164.509,128.515 164.658,128.724 		"/>
		<polygon fill="#231F20" points="157.576,119.94 162.883,115.162 163.734,114.397 163.922,114.229 164.11,114.062 164.116,114.055 
			163.946,113.865 163.771,113.673 163.766,113.675 163.578,113.847 163.392,114.013 162.542,114.783 157.231,119.56 
			157.405,119.752 		"/>
		<polygon fill="#231F20" points="149.438,111.766 154.217,106.458 154.982,105.607 155.15,105.42 155.323,105.23 155.327,105.224 
			155.137,105.054 154.947,104.88 154.941,104.883 154.769,105.078 153.836,106.116 149.058,111.423 149.248,111.594 		"/>
		<polygon fill="#231F20" points="135.097,296.21 134.971,295.995 134.399,295.001 130.828,288.82 130.607,288.945 130.385,289.071 
			133.955,295.262 134.527,296.251 134.652,296.466 134.78,296.688 134.784,296.695 135.006,296.569 135.229,296.441 
			135.226,296.437 		"/>
		<polygon fill="#231F20" points="145.504,289.41 144.684,288.286 144.684,288.286 140.488,282.51 140.28,282.662 140.072,282.81 
			144.268,288.585 144.943,289.517 145.089,289.717 145.24,289.924 145.245,289.933 145.451,289.779 145.659,289.63 145.655,289.62 
					"/>
		<polygon fill="#231F20" points="155.152,281.576 154.986,281.393 154.219,280.539 149.441,275.234 149.251,275.406 
			149.06,275.578 153.839,280.882 154.604,281.735 154.773,281.921 154.945,282.111 154.947,282.116 155.138,281.946 
			155.329,281.774 155.327,281.771 		"/>
		<polygon fill="#231F20" points="124.04,301.887 123.471,300.61 120.567,294.089 120.333,294.189 120.099,294.299 123.002,300.816 
			123.467,301.865 123.569,302.097 123.677,302.33 123.679,302.334 123.912,302.233 124.146,302.13 124.142,302.122 		"/>
		<polygon fill="#231F20" points="112.446,306.373 112.016,305.049 109.806,298.255 109.563,298.334 109.32,298.411 
			111.528,305.208 111.882,306.297 111.958,306.532 112.039,306.778 112.041,306.785 112.284,306.706 112.527,306.629 
			112.525,306.621 		"/>
		<polygon fill="#231F20" points="100.446,309.62 100.393,309.379 100.155,308.255 98.671,301.27 98.42,301.32 98.169,301.376 
			99.654,308.364 99.944,309.73 99.997,309.976 99.999,309.986 100.25,309.935 100.5,309.881 100.5,309.875 		"/>
		<polygon fill="#231F20" points="88.17,311.587 88.024,310.199 87.277,303.098 87.022,303.121 86.769,303.153 87.514,310.251 
			87.635,311.395 87.659,311.642 87.686,311.895 87.688,311.903 87.943,311.879 87.943,311.879 88.197,311.85 88.197,311.842 		"/>
		<polygon fill="#231F20" points="193.642,205.658 193.395,205.63 192.253,205.512 185.149,204.769 185.123,205.021 185.1,205.274 
			192.199,206.022 193.588,206.169 193.844,206.192 193.85,206.196 193.877,205.943 193.877,205.941 193.903,205.686 
			193.896,205.684 		"/>
		<polygon fill="#231F20" points="191.729,217.943 190.362,217.652 190.362,217.65 183.378,216.167 183.324,216.417 183.27,216.667 
			190.259,218.152 191.377,218.391 191.624,218.439 191.873,218.495 191.879,218.499 191.935,218.248 191.988,217.999 
			191.979,217.997 		"/>
		<polygon fill="#231F20" points="-42.641,181.34 -42.391,181.367 -41.252,181.486 -34.148,182.229 -34.122,181.977 
			-34.095,181.724 -41.199,180.976 -42.587,180.827 -42.84,180.804 -42.85,180.804 -42.873,181.057 -42.902,181.312 
			-42.897,181.312 		"/>
		<polygon fill="#231F20" points="188.536,229.958 188.297,229.878 187.208,229.521 180.413,227.318 180.334,227.562 
			180.257,227.803 187.048,230.011 188.375,230.441 188.619,230.525 188.627,230.525 188.706,230.278 188.787,230.038 
			188.778,230.036 		"/>
		<polygon fill="#231F20" points="163.922,272.771 163.737,272.603 162.883,271.835 157.578,267.06 157.407,267.25 157.233,267.438 
			162.542,272.217 163.58,273.15 163.768,273.324 163.774,273.328 163.948,273.135 164.118,272.947 164.115,272.943 		"/>
		<polygon fill="#231F20" points="171.718,263.088 171.517,262.941 170.587,262.266 164.811,258.07 164.66,258.278 164.51,258.487 
			170.287,262.682 171.216,263.356 171.416,263.503 171.625,263.652 171.629,263.652 171.78,263.451 171.93,263.239 
			171.925,263.235 		"/>
		<polygon fill="#231F20" points="184.099,241.565 183.868,241.467 182.82,241 176.299,238.095 176.191,238.33 176.089,238.564 
			182.612,241.469 183.887,242.036 184.121,242.14 184.128,242.146 184.233,241.906 184.338,241.677 184.331,241.675 		"/>
		<polygon fill="#231F20" points="178.47,252.65 178.251,252.525 177.26,251.949 171.076,248.385 170.945,248.606 170.821,248.826 
			177.004,252.4 178.212,253.097 178.434,253.224 178.438,253.228 178.567,253.004 178.696,252.78 178.691,252.778 		"/>
		<polygon fill="#231F20" points="-29.333,227.563 -29.413,227.32 -36.205,229.526 -37.535,229.96 -37.776,230.038 -37.782,230.04 
			-37.705,230.28 -37.624,230.528 -37.619,230.525 -37.374,230.445 -36.047,230.011 -29.255,227.808 		"/>
		<polygon fill="#231F20" points="-32.322,216.42 -32.376,216.169 -39.362,217.652 -40.727,217.943 -40.977,217.999 
			-40.984,217.999 -40.931,218.248 -40.878,218.499 -40.871,218.499 -40.621,218.441 -40.375,218.391 -39.255,218.154 
			-32.27,216.669 		"/>
		<polygon fill="#231F20" points="-34.122,205.021 -34.149,204.771 -41.252,205.517 -42.391,205.633 -42.641,205.665 
			-42.897,205.686 -42.902,205.688 -42.873,205.945 -42.85,206.198 -42.84,206.198 -42.587,206.171 -41.199,206.026 
			-34.097,205.276 		"/>
		<polygon fill="#231F20" points="-13.811,258.07 -19.586,262.266 -20.513,262.941 -20.714,263.088 -20.922,263.235 
			-20.928,263.239 -20.779,263.451 -20.626,263.652 -20.624,263.652 -20.414,263.503 -20.211,263.356 -19.287,262.682 
			-13.509,258.487 -13.659,258.279 		"/>
		<polygon fill="#231F20" points="-19.945,248.606 -20.074,248.385 -26.257,251.949 -26.257,251.952 -27.466,252.652 
			-27.687,252.778 -27.694,252.78 -27.565,253.006 -27.437,253.232 -27.431,253.228 -27.209,253.097 -26.992,252.971 
			-26.001,252.402 -19.815,248.828 		"/>
		<polygon fill="#231F20" points="-25.189,238.33 -25.295,238.096 -31.82,241 -32.866,241.469 -33.095,241.567 -33.327,241.677 
			-33.335,241.679 -33.232,241.908 -33.127,242.146 -33.12,242.144 -32.886,242.038 -31.611,241.471 -25.087,238.566 		"/>
		<polygon fill="#231F20" points="-6.577,267.06 -11.883,271.835 -12.736,272.603 -12.921,272.771 -13.114,272.943 -13.118,272.947 
			-12.946,273.135 -12.774,273.328 -12.769,273.324 -12.578,273.15 -11.542,272.217 -6.235,267.438 -6.406,267.25 		"/>
		<polygon fill="#231F20" points="30.435,294.089 27.531,300.61 26.961,301.887 26.858,302.122 26.854,302.13 27.089,302.233 
			27.323,302.334 27.325,302.33 27.432,302.097 27.533,301.865 27.998,300.816 30.904,294.299 30.667,294.189 		"/>
		<polygon fill="#231F20" points="41.193,298.255 38.987,305.049 38.987,305.049 38.554,306.373 38.475,306.621 38.473,306.629 
			38.716,306.706 38.961,306.785 38.963,306.778 39.043,306.532 39.12,306.297 39.474,305.208 41.68,298.409 41.438,298.334 		"/>
		<polygon fill="#231F20" points="52.331,301.27 50.845,308.255 50.606,309.379 50.554,309.62 50.5,309.875 50.499,309.881 
			50.752,309.935 51.001,309.986 51.003,309.976 51.056,309.73 51.348,308.364 52.831,301.376 52.58,301.32 		"/>
		<polygon fill="#231F20" points="63.722,303.098 62.976,310.199 62.976,310.199 62.831,311.587 62.804,311.842 62.803,311.85 
			63.057,311.879 63.057,311.879 63.313,311.903 63.313,311.895 63.34,311.642 63.365,311.395 63.486,310.251 64.233,303.153 
			63.977,303.121 		"/>
		<polygon fill="#231F20" points="1.562,275.234 -3.216,280.539 -3.985,281.393 -4.152,281.576 -4.323,281.769 -4.327,281.774 
			-4.135,281.946 -3.947,282.116 -3.942,282.111 -3.772,281.921 -3.604,281.735 -2.836,280.882 1.942,275.578 1.752,275.406 		"/>
		<polygon fill="#231F20" points="10.513,282.51 6.316,288.286 5.644,289.21 5.496,289.41 5.345,289.62 5.342,289.63 5.549,289.779 
			5.757,289.933 5.759,289.924 5.911,289.717 6.056,289.517 6.732,288.585 10.93,282.81 10.722,282.662 		"/>
		<polygon fill="#231F20" points="20.172,288.82 16.602,295.001 16.027,295.993 15.904,296.21 15.776,296.437 15.773,296.438 
			15.992,296.567 16.217,296.693 16.22,296.688 16.347,296.466 16.472,296.249 17.046,295.26 20.614,289.071 20.394,288.945 		"/>
	</g>
</g>
</svg>
