<?xml version="1.0" encoding="utf-8"?>
<!-- Generator: Adobe Illustrator 16.0.0, SVG Export Plug-In . SVG Version: 6.00 Build 0)  -->
<!DOCTYPE svg PUBLIC "-//W3C//DTD SVG 1.1//EN" "http://www.w3.org/Graphics/SVG/1.1/DTD/svg11.dtd">
<svg version="1.1" id="Layer_3" xmlns="http://www.w3.org/2000/svg" xmlns:xlink="http://www.w3.org/1999/xlink" x="0px" y="0px"
	 width="500px" height="620px" viewBox="0 0 500 620" enable-background="new 0 0 500 620" xml:space="preserve">
<g>
	<path fill="#4B84C4" d="M302.109,569.004c-3.965,2.871-10.247,3.129-48.979-8.979c-38.731-12.109-90.586-36.909-90.586-36.909
		s-7.885-2.296-12.667-7.427c-0.668,0.926-0.886,1.469-0.577,1.562c-0.438,1.666-0.095,6.141,0.098,7.569
		c1.35,10.001,16.146,14.298,16.146,14.298s51.855,24.8,90.586,36.909c38.731,12.108,45.014,11.851,48.979,8.979
		c52.429-45.191,90.58-107.783,97.617-121.785c3.629-7.221,4.448-15.296,1.941-23.386c-0.374-1.207-1.075-2.275-1.958-3.218
		c-0.319,3.587-1.259,7.169-2.983,10.602C392.689,461.221,354.538,523.812,302.109,569.004z"/>
</g>
</svg>
