<?xml version="1.0" encoding="utf-8"?>
<!-- Generator: Adobe Illustrator 16.0.0, SVG Export Plug-In . SVG Version: 6.00 Build 0)  -->
<!DOCTYPE svg PUBLIC "-//W3C//DTD SVG 1.1//EN" "http://www.w3.org/Graphics/SVG/1.1/DTD/svg11.dtd">
<svg version="1.1" xmlns="http://www.w3.org/2000/svg" xmlns:xlink="http://www.w3.org/1999/xlink" x="0px" y="0px"
	 width="408.003px" height="348.964px" viewBox="64.948 262.604 408.003 348.964"
	 enable-background="new 64.948 262.604 408.003 348.964" xml:space="preserve">
<g id="Layer_4">
	<g>
		<path fill="#4B84C4" d="M130.094,365.114c-13.342,10.214-30.577,42.848-43.292,83.59c-0.331,2.136,3.36,7.242,3.36,7.242
			s-5.891,1.854-9.006,3.584c-2.259,1.255-0.558,30.067-0.558,30.067s2.757,36.474,1.656,48.269
			c-1.041,2.61-19.275,30.283-17.131,73.701H440.75c5.671-11.13,10.669-24.487,15.387-39.904
			c13.256-2.735,16.781-6.857,16.662-16.256c-0.123-9.813,0.396-35.593,0.002-37.364s-11.033-14.453-12.49-16.465
			c-1.396-1.925-10.924-105.434-64.222-221.961C398.991,275.763,145.136,353.598,130.094,365.114z"/>
	</g>
</g>
<g id="Layer_2">
	<g>
		<path fill="#2CFF3B" d="M302.109,394.988c-3.965,2.871-10.248,3.129-48.979-8.979c-38.731-12.109-98.471-39.205-103.253-44.336
			c-0.668,0.926-0.886,1.469-0.577,1.562c-0.438,1.666-0.095,6.141,0.098,7.569c1.35,10.001,16.146,14.298,16.146,14.298
			s51.855,24.8,90.586,36.909c38.731,12.107,45.015,11.851,48.979,8.979c52.429-45.19,90.58-107.783,97.616-121.785
			c3.63-7.22,4.448-15.295,1.941-23.384c-0.374-1.207-1.075-2.275-1.958-3.218c-0.319,3.587-1.259,7.168-2.983,10.601
			C392.689,287.206,354.538,349.797,302.109,394.988z"/>
	</g>
</g>
</svg>
