<?xml version="1.0" encoding="utf-8"?>
<!-- Generator: Adobe Illustrator 16.0.0, SVG Export Plug-In . SVG Version: 6.00 Build 0)  -->
<!DOCTYPE svg PUBLIC "-//W3C//DTD SVG 1.1//EN" "http://www.w3.org/Graphics/SVG/1.1/DTD/svg11.dtd">
<svg version="1.1" id="dial_x5F_node" xmlns="http://www.w3.org/2000/svg" xmlns:xlink="http://www.w3.org/1999/xlink" x="0px"
	 y="0px" width="66.504px" height="66.506px" viewBox="141.748 141.747 66.504 66.506"
	 enable-background="new 141.748 141.747 66.504 66.506" xml:space="preserve">
<g>
	<path opacity="0.7" fill="#65C5BD" enable-background="new    " d="M208.252,174.995c0,18.368-14.885,33.258-33.251,33.258
		c-18.365,0-33.253-14.89-33.253-33.258c0-18.361,14.888-33.248,33.253-33.248C193.367,141.747,208.252,156.634,208.252,174.995z"/>
	<path opacity="0.7" fill="#6D52A1" enable-background="new    " d="M179.77,174.995c0,2.639-2.135,4.771-4.769,4.771
		s-4.768-2.133-4.768-4.771c0-2.629,2.133-4.765,4.768-4.765C177.635,170.23,179.77,172.366,179.77,174.995z"/>
	<g>
		<path fill="#A32C88" d="M177.268,174.995v-26.264l-2.265-2.797l-2.271,2.797v26.264H177.268z"/>
	</g>
</g>
</svg>
