<?xml version="1.0" encoding="utf-8"?>
<!-- Generator: Adobe Illustrator 16.0.0, SVG Export Plug-In . SVG Version: 6.00 Build 0)  -->
<!DOCTYPE svg PUBLIC "-//W3C//DTD SVG 1.1//EN" "http://www.w3.org/Graphics/SVG/1.1/DTD/svg11.dtd">
<svg version="1.1" id="Layer_1" xmlns="http://www.w3.org/2000/svg" xmlns:xlink="http://www.w3.org/1999/xlink" x="0px" y="0px"
	 width="500px" height="620px" viewBox="0 0 500 620" enable-background="new 0 0 500 620" xml:space="preserve">
<path fill-rule="evenodd" clip-rule="evenodd" fill="#4B84C4" d="M72.41,164.424c0,0,39.722-77.465,137.659-96.02
	c12.472-8.706,21.694-14.234,25.626-13.549C242.259,56,284.4,68.813,284.4,68.813l56.842,15.433c0,0,13.507-34.612,44.894-31.27
	c31.646,3.37,48.971,31.929,63.67,79.966c13.516,2.789,17.11,6.992,16.989,16.575c-0.126,10.005,0.404,36.291,0.002,38.097
	c-0.403,1.806-11.25,14.736-12.736,16.788c-1.422,1.962-5.02,87.106-59.363,205.922c7.107,9.439,11.413,24.189,5.028,36.895
	c-7.036,14.002-45.188,76.594-97.616,121.785c-3.965,2.871-10.248,3.129-48.979-8.98s-90.586-36.909-90.586-36.909
	s-19.327-5.611-15.82-18.937c-5.041-1.521-15.018-1.944-30.355-13.686c-13.604-10.415-31.176-43.688-44.141-85.228
	c-0.338-2.178,3.425-7.385,3.425-7.385s-6.006-1.891-9.182-3.655c-2.303-1.28-0.569-30.657-0.569-30.657s2.812-37.188,1.689-49.214
	C66.016,310.398,25.735,250.037,72.41,164.424z"/>
</svg>
