<?xml version="1.0" encoding="utf-8"?>
<!-- Generator: Adobe Illustrator 16.0.0, SVG Export Plug-In . SVG Version: 6.00 Build 0)  -->
<!DOCTYPE svg PUBLIC "-//W3C//DTD SVG 1.1//EN" "http://www.w3.org/Graphics/SVG/1.1/DTD/svg11.dtd">
<svg version="1.1" id="wedge_1_" xmlns="http://www.w3.org/2000/svg" xmlns:xlink="http://www.w3.org/1999/xlink" x="0px" y="0px"
	 width="300px" height="300px" viewBox="0 0 300 300" enable-background="new 0 0 300 300" xml:space="preserve">
<g id="wedge">
	<g>
		<path fill="#558DBF" d="M99.454,63.481l0.485,0.841l3.022,5.234l47.036,80.877l49.625-86.113l0.483-0.839l0.105-0.184l0.107-0.188
			l0,0c-0.062-0.036-0.121-0.077-0.186-0.113c-3.033-1.757-6.164-3.356-9.389-4.794c-3.197-1.426-6.479-2.694-9.84-3.785
			c-3.323-1.079-6.719-1.999-10.184-2.731c-3.412-0.72-6.886-1.278-10.414-1.646c-3.461-0.358-6.974-0.548-10.53-0.548l0,0
			c-3.556,0-7.067,0.189-10.528,0.548c-3.529,0.368-7.002,0.927-10.414,1.646c-3.465,0.733-6.86,1.652-10.184,2.731
			c-3.362,1.092-6.644,2.36-9.84,3.785c-3.224,1.438-6.356,3.039-9.391,4.794c-0.062,0.036-0.121,0.077-0.184,0.113l0.108,0.188
			L99.454,63.481z"/>
	</g>
</g>
</svg>
