<?xml version="1.0" encoding="utf-8"?>
<!-- Generator: Adobe Illustrator 16.0.0, SVG Export Plug-In . SVG Version: 6.00 Build 0)  -->
<!DOCTYPE svg PUBLIC "-//W3C//DTD SVG 1.1//EN" "http://www.w3.org/Graphics/SVG/1.1/DTD/svg11.dtd">
<svg version="1.1" id="logo" xmlns="http://www.w3.org/2000/svg" xmlns:xlink="http://www.w3.org/1999/xlink" x="0px" y="0px"
	 width="100px" height="50px" viewBox="16.5 5.259 100 50" enable-background="new 16.5 5.259 100 50" xml:space="preserve">
<rect x="16.5" y="5.259" fill="#262525" width="100" height="50"/>
<g>
	<path fill="#D6D5D6" d="M50.512,24.049c0,0,0.038,2.198,1.897,2.198h5.171v9.103h2.755v-9.103h5.144
		c1.859,0,1.897-2.198,1.897-2.198v-0.492H50.512V24.049z"/>
	<path fill="#D6D5D6" d="M84.488,28.182c0,0,0.161-1.792-1.325-3.279c-1.489-1.487-2.43-1.688-4.781-1.688h-4.47
		c-2.351,0-3.29,0.2-4.778,1.688c-1.489,1.487-1.328,3.279-1.328,3.279v0.76v0.91v0.758c0,0-0.161,1.792,1.328,3.28
		c1.488,1.489,2.427,1.688,4.778,1.688h4.47c2.352,0,3.292-0.199,4.781-1.688c1.486-1.488,1.325-3.28,1.325-3.28v-0.758h0.005v-0.91
		h-0.005V28.182z M81.499,29.851h-0.004v0.874c0,1.819-1.973,1.819-1.973,1.819h-1.14h-4.469h-1.139c0,0-1.972,0-1.972-1.819v-0.874
		v-0.909v-0.874c0-1.821,1.972-1.821,1.972-1.821h1.139h4.469h1.14c0,0,1.973,0,1.973,1.821v0.874h0.004V29.851L81.499,29.851z"/>
	<path fill="#D6D5D6" d="M102.467,30.063V28.49v-0.647c0,0,0.103-1.59-1.38-3.072c-1.48-1.481-2.658-1.555-3.703-1.555h-6.118
		c-1.043,0-2.222,0.073-3.706,1.555c-1.482,1.482-1.377,3.072-1.377,3.072v0.647v9.291h2.755v-2.441h8.446
		c1.041,0,2.221-0.073,3.702-1.554c1.483-1.483,1.38-3.072,1.381-3.073V30.063z M99.708,29.612c0,2.844-2.505,2.97-2.505,2.97
		h-1.318h-6.948v-3.64c0-2.845,2.509-2.972,2.509-2.972h1.317h3.123h1.317c0,0,2.507,0.125,2.505,2.972V29.612L99.708,29.612z"/>
	<path fill="#D6D5D6" d="M49.583,28.259c0,0-0.398-4.4-4.912-4.703h-6.56c-4.514,0.304-4.912,4.703-4.912,4.703v0.322v0.36v2.394
		v4.014h2.756v-4.014h10.873v4.014h2.755v-4.014v-2.394v-0.36l0,0V28.259L49.583,28.259z M35.997,28.582
		C36.112,27.88,36.564,26.4,38.3,26.4h6.182c1.737,0,2.188,1.48,2.306,2.182H35.997z"/>
</g>
</svg>
