<?xml version="1.0" encoding="utf-8"?>
<!-- Generator: Adobe Illustrator 16.0.0, SVG Export Plug-In . SVG Version: 6.00 Build 0)  -->
<!DOCTYPE svg PUBLIC "-//W3C//DTD SVG 1.1//EN" "http://www.w3.org/Graphics/SVG/1.1/DTD/svg11.dtd">
<svg version="1.1" id="logo" xmlns="http://www.w3.org/2000/svg" xmlns:xlink="http://www.w3.org/1999/xlink" x="0px" y="0px"
	 width="150px" height="75px" viewBox="-8.5 -7.241 150 75" enable-background="new -8.5 -7.241 150 75" xml:space="preserve">
<rect x="-8.5" y="-7.241" fill="#262525" width="150" height="75"/>
<g>
	<path fill="#D6D5D6" d="M42.519,20.944c0,0,0.057,3.299,2.845,3.299h7.756v13.654h4.134V24.243h7.715
		c2.789,0,2.845-3.299,2.845-3.299v-0.739H42.519V20.944z"/>
	<path fill="#D6D5D6" d="M93.483,27.144c0,0,0.242-2.688-1.99-4.92s-3.643-2.532-7.169-2.532h-6.706c-3.527,0-4.935,0.3-7.168,2.532
		c-2.232,2.232-1.991,4.92-1.991,4.92v1.138v1.365v1.138c0,0-0.241,2.688,1.991,4.92c2.233,2.233,3.641,2.531,7.168,2.531h6.706
		c3.526,0,4.937-0.298,7.169-2.531c2.232-2.232,1.99-4.92,1.99-4.92v-1.138h0.008v-1.365h-0.008V27.144z M88.999,29.648H88.99v1.309
		c0,2.73-2.958,2.73-2.958,2.73h-1.707H77.62h-1.708c0,0-2.958,0-2.958-2.73v-1.309v-1.365v-1.309c0-2.732,2.958-2.732,2.958-2.732
		h1.708h6.705h1.707c0,0,2.958,0,2.958,2.732v1.309h0.009V29.648z"/>
	<path fill="#D6D5D6" d="M120.45,29.966v-2.36v-0.972c0,0,0.155-2.385-2.068-4.608s-3.991-2.333-5.556-2.333h-9.178
		c-1.565,0-3.334,0.11-5.557,2.333c-2.224,2.223-2.067,4.608-2.067,4.608v0.972l-0.002,13.934h4.136v-3.66h12.666
		c1.563,0,3.333-0.109,5.557-2.332c2.224-2.224,2.068-4.608,2.069-4.609V29.966z M116.312,29.288c0,4.266-3.758,4.456-3.758,4.456
		h-1.977h-10.42v-5.461c0-4.266,3.759-4.456,3.759-4.456h1.976h4.686h1.977c0,0,3.761,0.189,3.758,4.456V29.288z"/>
	<path fill="#D6D5D6" d="M41.125,27.259c0,0-0.597-6.601-7.367-7.055h-9.841c-6.77,0.455-7.368,7.055-7.368,7.055v0.483v0.54v3.593
		v6.02h4.134v-6.02h16.309v6.02h4.133v-6.02v-3.593v-0.54h-0.001V27.259z M20.745,27.743c0.174-1.052,0.851-3.272,3.456-3.272h9.273
		c2.606,0,3.282,2.22,3.458,3.272H20.745z"/>
</g>
</svg>
