<?xml version="1.0" encoding="utf-8"?>
<!-- Generator: Adobe Illustrator 16.0.0, SVG Export Plug-In . SVG Version: 6.00 Build 0)  -->
<!DOCTYPE svg PUBLIC "-//W3C//DTD SVG 1.1//EN" "http://www.w3.org/Graphics/SVG/1.1/DTD/svg11.dtd">
<svg version="1.1" id="logo" xmlns="http://www.w3.org/2000/svg" xmlns:xlink="http://www.w3.org/1999/xlink" x="0px" y="0px"
	 width="75px" height="75px" viewBox="-33 48.5 75 75" enable-background="new -33 48.5 75 75" xml:space="preserve">
<rect x="-33" y="48.5" width="75" height="75"/>
<g>
	<path fill="#FFFFFF" d="M-3.568,78.43c2.169-1.99,3.819-3.711,4.949-5.162c1.13-1.453,1.972-2.82,2.525-4.106h1.033
		c0.703,1.479,1.612,2.917,2.727,4.31c1.115,1.391,2.75,3.053,4.904,4.981v1.729c-3.007-1.408-5.319-2.881-6.934-4.422v27.081H3.367
		V75.759c-1.437,1.138-2.51,1.929-3.221,2.38c-0.711,0.447-1.95,1.113-3.715,1.996L-3.568,78.43L-3.568,78.43z"/>
</g>
</svg>
