<?xml version="1.0" encoding="utf-8"?>
<!-- Generator: Adobe Illustrator 16.0.0, SVG Export Plug-In . SVG Version: 6.00 Build 0)  -->
<!DOCTYPE svg PUBLIC "-//W3C//DTD SVG 1.1//EN" "http://www.w3.org/Graphics/SVG/1.1/DTD/svg11.dtd">
<svg version="1.1" id="Layer_1" xmlns="http://www.w3.org/2000/svg" xmlns:xlink="http://www.w3.org/1999/xlink" x="0px" y="0px"
	 width="300px" height="400px" viewBox="0 0 300 400" enable-background="new 0 0 300 400" xml:space="preserve">
<path fill="#BF4BDB" d="M115.273,152.153l0.335,0.58l2.085,3.612l32.455,55.805l34.243-59.417l0.334-0.579l0.071-0.126l0.076-0.13
	l0,0c-0.044-0.025-0.085-0.053-0.129-0.078c-2.095-1.212-4.254-2.316-6.479-3.308c-2.205-0.984-4.469-1.859-6.789-2.612
	c-2.293-0.744-4.637-1.378-7.026-1.884c-2.354-0.497-4.75-0.882-7.187-1.136c-2.388-0.248-4.811-0.378-7.264-0.378h-0.001
	c-2.453,0-4.876,0.131-7.265,0.378c-2.436,0.254-4.831,0.639-7.186,1.136c-2.391,0.506-4.733,1.14-7.026,1.884
	c-2.32,0.754-4.584,1.63-6.79,2.612c-2.224,0.992-4.385,2.097-6.479,3.308c-0.043,0.025-0.084,0.053-0.127,0.078l0.074,0.13
	L115.273,152.153z"/>
</svg>
