<?xml version="1.0" encoding="utf-8"?>
<!-- Generator: Adobe Illustrator 16.0.0, SVG Export Plug-In . SVG Version: 6.00 Build 0)  -->
<!DOCTYPE svg PUBLIC "-//W3C//DTD SVG 1.1//EN" "http://www.w3.org/Graphics/SVG/1.1/DTD/svg11.dtd">
<svg version="1.1" id="Layer_2_1_" xmlns="http://www.w3.org/2000/svg" xmlns:xlink="http://www.w3.org/1999/xlink" x="0px" y="0px"
	 width="300px" height="400px" viewBox="0 0 300 400" enable-background="new 0 0 300 400" xml:space="preserve">
<g>
	<polygon points="109.452,156.423 109.366,156.304 109.279,156.183 109.276,156.18 109.155,156.268 109.034,156.356 
		109.036,156.358 109.124,156.479 109.211,156.598 109.604,157.14 112.055,160.513 112.176,160.425 112.297,160.337 
		109.846,156.963 	"/>
	<polygon points="83.998,191.197 84.138,191.243 84.774,191.448 88.74,192.737 88.786,192.595 88.833,192.453 84.867,191.164 
		84.091,190.913 83.949,190.866 83.945,190.864 83.899,191.007 83.853,191.149 83.856,191.151 	"/>
	<polygon points="86.591,184.417 86.724,184.476 87.335,184.748 91.145,186.444 91.206,186.308 91.267,186.173 87.457,184.476 
		87.457,184.476 86.712,184.144 86.576,184.083 86.572,184.081 86.511,184.219 86.45,184.354 86.454,184.356 	"/>
	<polygon points="89.876,177.945 90.003,178.02 90.583,178.354 94.194,180.438 94.269,180.309 94.343,180.179 90.732,178.095 
		90.732,178.095 90.026,177.687 89.896,177.612 89.894,177.61 89.819,177.739 89.744,177.868 89.747,177.872 	"/>
	<polygon points="103.714,160.856 103.613,160.743 103.61,160.741 103.499,160.841 103.389,160.941 103.392,160.944 103.49,161.056 
		103.589,161.164 104.036,161.661 106.827,164.761 106.938,164.659 107.05,164.56 104.259,161.461 	"/>
	<polygon points="94.113,171.696 93.994,171.609 93.874,171.522 93.871,171.52 93.782,171.641 93.694,171.762 93.697,171.764 
		93.819,171.852 93.937,171.938 94.478,172.331 97.852,174.782 97.939,174.661 98.027,174.54 94.654,172.089 	"/>
	<polygon points="98.679,166.073 98.57,165.977 98.459,165.876 98.457,165.874 98.356,165.984 98.256,166.096 98.258,166.099 
		98.37,166.198 98.976,166.743 102.075,169.534 102.175,169.423 102.275,169.312 99.175,166.522 	"/>
	<polygon points="211.213,192.596 211.26,192.739 215.227,191.45 215.862,191.243 216.001,191.197 216.144,191.152 216.147,191.149 
		216.102,191.008 216.055,190.864 216.051,190.867 215.908,190.913 215.133,191.165 211.167,192.453 	"/>
	<polygon points="82.134,198.212 82.932,198.382 87.01,199.249 87.041,199.103 87.072,198.956 82.994,198.089 82.339,197.95 
		82.195,197.92 82.05,197.89 82.046,197.888 82.015,198.034 81.983,198.18 81.987,198.181 	"/>
	<polygon points="205.731,180.309 205.806,180.438 209.417,178.354 209.997,178.02 210.123,177.945 210.253,177.872 
		210.256,177.868 210.181,177.739 210.105,177.61 210.103,177.612 209.973,177.687 209.268,178.095 205.656,180.179 	"/>
	<polygon points="208.794,186.309 208.855,186.445 212.665,184.749 213.276,184.477 213.41,184.418 213.546,184.356 213.55,184.354 
		213.488,184.219 213.429,184.081 213.425,184.083 213.288,184.144 213.154,184.203 212.543,184.476 208.733,186.173 	"/>
	<polygon points="212.958,199.103 212.989,199.249 217.069,198.382 217.866,198.212 218.012,198.182 218.016,198.181 
		217.985,198.035 217.955,197.888 217.95,197.89 217.804,197.92 217.661,197.95 217.007,198.089 212.927,198.956 	"/>
	<polygon points="214.01,205.759 214.025,205.907 218.173,205.471 218.839,205.4 218.983,205.386 219.133,205.37 219.136,205.368 
		219.121,205.22 219.105,205.071 219.102,205.071 218.952,205.087 218.142,205.173 213.994,205.609 	"/>
	<polygon points="187.944,160.512 190.396,157.14 190.395,157.14 190.874,156.479 190.962,156.358 190.965,156.354 190.844,156.268 
		190.839,156.265 190.723,156.179 190.719,156.182 190.632,156.303 190.546,156.421 190.153,156.962 187.702,160.337 
		187.823,160.425 	"/>
	<polygon points="202.147,174.782 205.521,172.331 206.063,171.938 206.182,171.852 206.302,171.764 206.306,171.761 
		206.218,171.64 206.13,171.52 206.127,171.522 206.005,171.609 205.346,172.089 205.346,172.089 201.973,174.54 202.061,174.661 	
		"/>
	<polygon points="197.925,169.532 201.023,166.743 201.521,166.296 201.63,166.198 201.74,166.099 201.743,166.096 201.644,165.984 
		201.543,165.874 201.54,165.876 201.429,165.976 201.32,166.073 200.823,166.522 197.725,169.312 197.824,169.423 	"/>
	<polygon points="193.172,164.76 195.963,161.661 196.41,161.163 196.508,161.055 196.608,160.944 196.611,160.94 196.5,160.841 
		196.389,160.739 196.386,160.743 196.285,160.854 195.74,161.461 192.95,164.56 193.062,164.659 	"/>
	<polygon points="184.799,272.458 184.726,272.334 184.392,271.753 182.307,268.144 182.177,268.217 182.047,268.291 
		184.132,271.903 184.467,272.482 184.539,272.608 184.614,272.739 184.616,272.741 184.746,272.667 184.876,272.592 
		184.874,272.589 	"/>
	<polygon points="190.876,268.489 190.396,267.832 190.396,267.832 187.946,264.458 187.825,264.546 187.704,264.635 
		190.154,268.007 190.548,268.549 190.633,268.667 190.722,268.787 190.725,268.791 190.845,268.703 190.966,268.614 
		190.964,268.611 	"/>
	<polygon points="196.51,263.914 196.412,263.806 195.964,263.309 193.174,260.21 193.063,260.312 192.951,260.411 195.742,263.509 
		196.189,264.007 196.287,264.114 196.387,264.226 196.39,264.229 196.501,264.129 196.612,264.029 196.61,264.026 	"/>
	<polygon points="178.342,275.773 178.01,275.028 176.314,271.219 176.178,271.28 176.041,271.341 177.736,275.149 178.008,275.762 
		178.068,275.896 178.13,276.031 178.131,276.034 178.268,275.976 178.404,275.914 178.402,275.909 	"/>
	<polygon points="171.572,278.394 171.321,277.618 170.031,273.653 169.89,273.698 169.747,273.745 171.036,277.712 
		171.243,278.348 171.288,278.486 171.334,278.629 171.336,278.633 171.478,278.587 171.62,278.542 171.619,278.536 	"/>
	<polygon points="164.565,280.29 164.535,280.146 164.396,279.491 163.529,275.413 163.383,275.444 163.235,275.476 
		164.104,279.556 164.272,280.352 164.304,280.499 164.305,280.502 164.451,280.472 164.597,280.44 164.597,280.437 	"/>
	<polygon points="157.397,281.438 157.312,280.627 156.876,276.479 156.728,276.495 156.579,276.511 157.015,280.657 
		157.085,281.323 157.1,281.469 157.115,281.618 157.116,281.622 157.265,281.606 157.266,281.606 157.413,281.591 157.413,281.587 
			"/>
	<polygon points="218.983,219.584 218.839,219.569 218.173,219.499 214.025,219.062 214.01,219.212 213.994,219.36 218.142,219.796 
		218.952,219.882 219.102,219.897 219.105,219.897 219.121,219.749 219.121,219.747 219.137,219.601 219.133,219.6 	"/>
	<polygon points="217.867,226.757 217.069,226.589 217.069,226.587 212.99,225.72 212.959,225.866 212.928,226.012 217.008,226.88 
		217.662,227.02 217.805,227.049 217.951,227.08 217.955,227.081 217.986,226.936 218.017,226.79 218.013,226.788 	"/>
	<polygon points="81.017,205.385 81.161,205.399 81.827,205.47 85.975,205.905 85.99,205.757 86.006,205.608 81.858,205.173 
		81.047,205.086 80.898,205.07 80.895,205.07 80.879,205.22 80.863,205.368 80.867,205.368 	"/>
	<polygon points="216.002,233.772 215.863,233.726 215.227,233.52 211.26,232.231 211.214,232.374 211.168,232.516 215.133,233.806 
		215.909,234.056 216.051,234.103 216.056,234.104 216.102,233.962 216.148,233.819 216.145,233.818 	"/>
	<polygon points="201.631,258.772 201.522,258.675 201.024,258.226 197.926,255.437 197.826,255.548 197.726,255.657 
		200.824,258.448 201.43,258.993 201.541,259.095 201.544,259.097 201.645,258.985 201.744,258.874 201.743,258.872 	"/>
	<polygon points="206.183,253.118 206.064,253.032 205.522,252.64 202.148,250.188 202.062,250.309 201.974,250.431 
		205.347,252.882 205.888,253.274 206.006,253.36 206.129,253.448 206.131,253.45 206.218,253.33 206.307,253.208 206.303,253.206 	
		"/>
	<polygon points="213.411,240.553 213.277,240.493 212.666,240.221 208.856,238.524 208.795,238.661 208.734,238.799 
		212.544,240.493 213.288,240.825 213.426,240.887 213.429,240.89 213.489,240.751 213.551,240.614 213.547,240.613 	"/>
	<polygon points="210.124,247.024 209.998,246.95 209.418,246.616 205.807,244.531 205.732,244.661 205.657,244.791 
		209.269,246.876 209.974,247.282 210.104,247.358 210.106,247.36 210.182,247.23 210.257,247.101 210.254,247.099 	"/>
	<polygon points="88.786,232.375 88.739,232.233 84.773,233.522 83.998,233.773 83.856,233.819 83.853,233.82 83.898,233.963 
		83.945,234.106 83.949,234.104 84.091,234.058 84.866,233.806 88.832,232.518 	"/>
	<polygon points="87.041,225.868 87.009,225.721 82.931,226.589 82.133,226.759 81.987,226.79 81.983,226.79 82.015,226.937 
		82.045,227.082 82.049,227.081 82.195,227.051 82.338,227.021 82.993,226.881 87.072,226.014 	"/>
	<polygon points="85.989,219.213 85.974,219.064 81.827,219.5 81.161,219.57 81.017,219.586 80.867,219.601 80.863,219.602 
		80.879,219.751 80.895,219.899 80.898,219.899 81.047,219.884 81.858,219.798 86.005,219.361 	"/>
	<polygon points="97.851,250.188 94.478,252.64 93.936,253.032 93.818,253.118 93.697,253.206 93.693,253.208 93.782,253.33 
		93.87,253.45 93.871,253.448 93.994,253.36 94.112,253.274 94.653,252.882 98.026,250.431 97.938,250.31 	"/>
	<polygon points="94.269,244.662 94.193,244.532 90.582,246.616 90.582,246.617 89.876,247.024 89.747,247.1 89.743,247.102 
		89.818,247.231 89.894,247.361 89.896,247.36 90.026,247.284 90.153,247.211 90.732,246.878 94.343,244.792 	"/>
	<polygon points="91.205,238.662 91.145,238.525 87.334,240.222 86.723,240.493 86.59,240.554 86.453,240.614 86.449,240.616 
		86.51,240.752 86.571,240.89 86.575,240.888 86.712,240.827 87.457,240.495 91.266,238.8 	"/>
	<polygon points="102.074,255.437 98.975,258.226 98.478,258.675 98.369,258.772 98.257,258.872 98.255,258.874 98.355,258.985 
		98.456,259.097 98.458,259.095 98.569,258.993 99.175,258.448 102.274,255.657 102.174,255.548 	"/>
	<polygon points="123.686,271.219 121.989,275.028 121.657,275.773 121.597,275.909 121.595,275.914 121.731,275.976 
		121.868,276.034 121.87,276.031 121.932,275.896 121.99,275.762 122.263,275.149 123.958,271.341 123.821,271.28 	"/>
	<polygon points="129.967,273.652 128.679,277.618 128.679,277.618 128.426,278.394 128.38,278.536 128.379,278.542 
		128.521,278.587 128.664,278.633 128.665,278.629 128.712,278.486 128.757,278.348 128.963,277.712 130.252,273.743 
		130.109,273.698 	"/>
	<polygon points="136.471,275.413 135.603,279.491 135.464,280.146 135.434,280.29 135.402,280.437 135.401,280.44 135.549,280.472 
		135.694,280.502 135.695,280.499 135.727,280.352 135.896,279.556 136.763,275.476 136.616,275.444 	"/>
	<polygon points="143.122,276.479 142.687,280.627 142.687,280.627 142.602,281.438 142.586,281.587 142.585,281.591 
		142.733,281.606 142.734,281.606 142.883,281.622 142.883,281.618 142.898,281.469 142.914,281.323 142.984,280.657 
		143.42,276.511 143.271,276.495 	"/>
	<polygon points="106.826,260.21 104.036,263.309 103.588,263.806 103.49,263.914 103.391,264.025 103.388,264.029 103.499,264.129 
		103.61,264.229 103.613,264.226 103.713,264.114 103.811,264.007 104.258,263.509 107.049,260.411 106.938,260.312 	"/>
	<polygon points="112.053,264.458 109.603,267.832 109.21,268.372 109.123,268.489 109.035,268.611 109.033,268.614 
		109.154,268.703 109.275,268.791 109.278,268.787 109.365,268.667 109.451,268.549 109.845,268.007 112.296,264.635 
		112.175,264.546 	"/>
	<polygon points="117.692,268.142 115.608,271.752 115.272,272.332 115.2,272.458 115.126,272.589 115.124,272.591 115.253,272.666 
		115.383,272.741 115.385,272.739 115.459,272.608 115.532,272.481 115.867,271.902 117.951,268.291 117.822,268.217 	"/>
</g>
</svg>
